<svg xmlns="http://www.w3.org/2000/svg" version="1.1" viewBox="-5.0 -10.0 110.0 135.0">
 <path d="m33 78c0 3.8594 3.1406 7 7 7s7-3.1406 7-7-3.1406-7-7-7-7 3.1406-7 7zm10 0c0 1.6484-1.3516 3-3 3s-3-1.3516-3-3 1.3516-3 3-3 3 1.3516 3 3z"/>
 <path d="m59 78c0 3.8594 3.1406 7 7 7s7-3.1406 7-7-3.1406-7-7-7-7 3.1406-7 7zm10 0c0 1.6484-1.3516 3-3 3s-3-1.3516-3-3 1.3516-3 3-3 3 1.3516 3 3z"/>
 <path d="m24.078 23.539 2 34.469c0.03125 4.6797 3.8516 8.4805 8.5391 8.4805h34.961c3.75 0 7.1211-2.5117 8.1914-6.1094l4.7617-19.969c0.76172-2.6289 0.25-5.3984-1.4297-7.5781-1.6719-2.1719-4.3281-3.3398-7.0703-3.3398h-43.238c-1.3281 0-2.4219-1.0391-2.5-2.3594l-0.21094-3.6602c-0.03125-4.6719-3.8516-8.4727-8.543-8.4727h-9.1602c-1.2109 0-2.1797 1.0781-1.9688 2.3398 0.16016 0.98047 1.0781 1.6602 2.0781 1.6602h9.0508c2.5117 0 4.5391 2.0391 4.5391 4.5391z"/>
<text x="0.0" y="117.5" font-size="5.0" font-weight="bold" font-family="Arbeit Regular, Helvetica, Arial-Unicode, Arial, Sans-serif" fill="#000000">Created by Icon Master</text><text x="0.0" y="122.5" font-size="5.0" font-weight="bold" font-family="Arbeit Regular, Helvetica, Arial-Unicode, Arial, Sans-serif" fill="#000000">from Noun Project</text></svg>