<svg width="75" height="70" viewBox="0 0 75 70" fill="none" xmlns="http://www.w3.org/2000/svg">
<path d="M24.6187 63.0001C24.6187 66.8595 27.7593 70.0001 31.6187 70.0001C35.4781 70.0001 38.6187 66.8595 38.6187 63.0001C38.6187 59.1407 35.4781 56.0001 31.6187 56.0001C27.7593 56.0001 24.6187 59.1407 24.6187 63.0001ZM34.6187 63.0001C34.6187 64.6485 33.2671 66.0001 31.6187 66.0001C29.9703 66.0001 28.6187 64.6485 28.6187 63.0001C28.6187 61.3517 29.9703 60.0001 31.6187 60.0001C33.2671 60.0001 34.6187 61.3517 34.6187 63.0001Z" fill="#E77917"/>
<path d="M50.6187 63.0001C50.6187 66.8595 53.7593 70.0001 57.6187 70.0001C61.4781 70.0001 64.6187 66.8595 64.6187 63.0001C64.6187 59.1407 61.4781 56.0001 57.6187 56.0001C53.7593 56.0001 50.6187 59.1407 50.6187 63.0001ZM60.6187 63.0001C60.6187 64.6485 59.2671 66.0001 57.6187 66.0001C55.9703 66.0001 54.6187 64.6485 54.6187 63.0001C54.6187 61.3517 55.9703 60.0001 57.6187 60.0001C59.2671 60.0001 60.6187 61.3517 60.6187 63.0001Z" fill="#E77917"/>
<path fill-rule="evenodd" clip-rule="evenodd" d="M20.5 13.6035C19.5 15 17.5 15.5 15.9906 13.6035L17.6967 43.0081C17.728 47.6878 21.5483 51.4886 26.2358 51.4886H61.1968C64.9468 51.4886 68.3179 48.9769 69.3882 45.3792L74.1499 25.4102C74.9116 22.7813 74.3999 20.0118 72.7202 17.8321C71.0483 15.6602 68.3921 14.4923 65.6499 14.4923H22.4119C21.6472 14.4923 20.9602 14.1478 20.5 13.6035Z" fill="#E77917"/>
<path d="M19.9119 12.1329L19.701 8.4727C19.6697 3.8008 15.8494 0 11.158 0H1.99779C0.786885 0 -0.181914 1.0781 0.0289857 2.3398C0.189146 3.32027 1.10709 4 2.10709 4H11.1579C13.6696 4 15.6967 6.0391 15.6967 8.5391L15.9906 13.6035C17.5 15.5 19.5 15 20.5 13.6035C20.161 13.2025 19.9451 12.693 19.9119 12.1329Z" fill="#E77917"/>
</svg>
