<svg width="137" height="29" viewBox="0 0 137 29" fill="none" xmlns="http://www.w3.org/2000/svg">
<g clip-path="url(#clip0_629_131)">
<path d="M17.6056 1C17.3111 0.388889 16.6889 0 16.0056 0C15.3222 0 14.7056 0.388889 14.4056 1L10.8333 8.35L2.85556 9.52778C2.18889 9.62778 1.63333 10.0944 1.42778 10.7333C1.22222 11.3722 1.38889 12.0778 1.86667 12.55L7.65556 18.2778L6.28889 26.3722C6.17778 27.0389 6.45556 27.7167 7.00556 28.1111C7.55556 28.5056 8.28333 28.5556 8.88333 28.2389L16.0111 24.4333L23.1389 28.2389C23.7389 28.5556 24.4667 28.5111 25.0167 28.1111C25.5667 27.7111 25.8444 27.0389 25.7333 26.3722L24.3611 18.2778L30.15 12.55C30.6278 12.0778 30.8 11.3722 30.5889 10.7333C30.3778 10.0944 29.8278 9.62778 29.1611 9.52778L21.1778 8.35L17.6056 1Z" fill="#E77917"/>
</g>
<g clip-path="url(#clip1_629_131)">
<path d="M52.6056 1C52.3111 0.388889 51.6889 0 51.0056 0C50.3222 0 49.7056 0.388889 49.4056 1L45.8333 8.35L37.8556 9.52778C37.1889 9.62778 36.6333 10.0944 36.4278 10.7333C36.2222 11.3722 36.3889 12.0778 36.8667 12.55L42.6556 18.2778L41.2889 26.3722C41.1778 27.0389 41.4556 27.7167 42.0056 28.1111C42.5556 28.5056 43.2833 28.5556 43.8833 28.2389L51.0111 24.4333L58.1389 28.2389C58.7389 28.5556 59.4667 28.5111 60.0167 28.1111C60.5667 27.7111 60.8444 27.0389 60.7333 26.3722L59.3611 18.2778L65.15 12.55C65.6278 12.0778 65.8 11.3722 65.5889 10.7333C65.3778 10.0944 64.8278 9.62778 64.1611 9.52778L56.1778 8.35L52.6056 1Z" fill="#E77917"/>
</g>
<g clip-path="url(#clip2_629_131)">
<path d="M87.6056 1C87.3111 0.388889 86.6889 0 86.0056 0C85.3222 0 84.7056 0.388889 84.4056 1L80.8333 8.35L72.8556 9.52778C72.1889 9.62778 71.6333 10.0944 71.4278 10.7333C71.2222 11.3722 71.3889 12.0778 71.8667 12.55L77.6556 18.2778L76.2889 26.3722C76.1778 27.0389 76.4556 27.7167 77.0056 28.1111C77.5556 28.5056 78.2833 28.5556 78.8833 28.2389L86.0111 24.4333L93.1389 28.2389C93.7389 28.5556 94.4667 28.5111 95.0167 28.1111C95.5667 27.7111 95.8444 27.0389 95.7333 26.3722L94.3611 18.2778L100.15 12.55C100.628 12.0778 100.8 11.3722 100.589 10.7333C100.378 10.0944 99.8278 9.62778 99.1611 9.52778L91.1778 8.35L87.6056 1Z" fill="#E77917"/>
</g>
<g clip-path="url(#clip3_629_131)">
<path d="M122.606 1C122.311 0.388889 121.689 0 121.006 0C120.322 0 119.706 0.388889 119.406 1L115.833 8.35L107.856 9.52778C107.189 9.62778 106.633 10.0944 106.428 10.7333C106.222 11.3722 106.389 12.0778 106.867 12.55L112.656 18.2778L111.289 26.3722C111.178 27.0389 111.456 27.7167 112.006 28.1111C112.556 28.5056 113.283 28.5556 113.883 28.2389L121.011 24.4333L128.139 28.2389C128.739 28.5556 129.467 28.5111 130.017 28.1111C130.567 27.7111 130.844 27.0389 130.733 26.3722L129.361 18.2778L135.15 12.55C135.628 12.0778 135.8 11.3722 135.589 10.7333C135.378 10.0944 134.828 9.62778 134.161 9.52778L126.178 8.35L122.606 1Z" fill="#E77917"/>
</g>
<defs>
<clipPath id="clip0_629_131">
<rect width="32" height="28.4444" fill="white"/>
</clipPath>
<clipPath id="clip1_629_131">
<rect width="32" height="28.4444" fill="white" transform="translate(35)"/>
</clipPath>
<clipPath id="clip2_629_131">
<rect width="32" height="28.4444" fill="white" transform="translate(70)"/>
</clipPath>
<clipPath id="clip3_629_131">
<rect width="32" height="28.4444" fill="white" transform="translate(105)"/>
</clipPath>
</defs>
</svg>
