<svg xmlns="http://www.w3.org/2000/svg" version="1.1" xmlns:xlink="http://www.w3.org/1999/xlink" xmlns:svgjs="http://svgjs.dev/svgjs" width="1500" height="378" viewBox="0 0 1500 378"><g transform="matrix(1,0,0,1,-0.9090909090909918,-1.3241765826448386)"><svg viewBox="0 0 396 100" data-background-color="#fafafa" preserveAspectRatio="xMidYMid meet" height="378" width="1500" xmlns="http://www.w3.org/2000/svg" xmlns:xlink="http://www.w3.org/1999/xlink"><g id="tight-bounds" transform="matrix(1,0,0,1,0.2400000000000091,0.3503112652499567)"><svg viewBox="0 0 395.52 99.29937746950006" height="99.29937746950006" width="395.52"><g><svg viewBox="0 0 565.8292470553474 142.05727140633078" height="99.29937746950006" width="395.52"><g transform="matrix(1,0,0,1,0,41.11033010558597)"><svg viewBox="0 0 395.52 59.83661119515884" height="59.83661119515884" width="395.52"><g id="textblocktransform"><svg viewBox="0 0 395.52 59.83661119515884" height="59.83661119515884" width="395.52" id="textblock"><g><svg viewBox="0 0 395.52 59.83661119515884" height="59.83661119515884" width="395.52"><g transform="matrix(1,0,0,1,0,0)"><svg width="395.52" viewBox="3.05 -38 326.22999999999996 50" height="59.83661119515884" data-palette-color="#130912"><g class="wordmark-text-0" data-fill-palette-color="primary" id="text-0"><path d="M20.35-14.85L20.35-18.85 32.7-18.85 32.7-1.35Q29.8-0.4 26.85 0.05 23.9 0.5 20.15 0.5L20.15 0.5Q14.6 0.5 10.8-1.73 7-3.95 5.03-8.08 3.05-12.2 3.05-17.85L3.05-17.85Q3.05-23.45 5.25-27.55 7.45-31.65 11.58-33.93 15.7-36.2 21.55-36.2L21.55-36.2Q24.55-36.2 27.23-35.65 29.9-35.1 32.2-34.1L32.2-34.1 30.5-30.2Q28.6-31.05 26.23-31.65 23.85-32.25 21.3-32.25L21.3-32.25Q14.9-32.25 11.33-28.4 7.75-24.55 7.75-17.85L7.75-17.85Q7.75-13.6 9.13-10.33 10.5-7.05 13.45-5.23 16.4-3.4 21.2-3.4L21.2-3.4Q23.55-3.4 25.2-3.65 26.85-3.9 28.2-4.25L28.2-4.25 28.2-14.85 20.35-14.85ZM50.8-27.25L50.8-27.25Q55.7-27.25 58.05-25.1 60.4-22.95 60.4-18.25L60.4-18.25 60.4 0 57.2 0 56.35-3.8 56.15-3.8Q54.4-1.6 52.47-0.55 50.55 0.5 47.15 0.5L47.15 0.5Q43.5 0.5 41.1-1.43 38.7-3.35 38.7-7.45L38.7-7.45Q38.7-11.45 41.85-13.63 45-15.8 51.55-16L51.55-16 56.1-16.15 56.1-17.75Q56.1-21.1 54.65-22.4 53.2-23.7 50.55-23.7L50.55-23.7Q48.45-23.7 46.55-23.08 44.65-22.45 43-21.65L43-21.65 41.65-24.95Q43.4-25.9 45.8-26.58 48.2-27.25 50.8-27.25ZM56.05-13.1L52.1-12.95Q47.1-12.75 45.17-11.35 43.25-9.95 43.25-7.4L43.25-7.4Q43.25-5.15 44.62-4.1 46-3.05 48.15-3.05L48.15-3.05Q51.55-3.05 53.8-4.93 56.05-6.8 56.05-10.7L56.05-10.7 56.05-13.1ZM98.09-27.3L98.09-27.3Q102.65-27.3 104.9-24.98 107.15-22.65 107.15-17.45L107.15-17.45 107.15 0 102.8 0 102.8-17.25Q102.8-23.6 97.34-23.6L97.34-23.6Q93.45-23.6 91.77-21.35 90.1-19.1 90.1-14.8L90.1-14.8 90.1 0 85.75 0 85.75-17.25Q85.75-23.6 80.25-23.6L80.25-23.6Q76.2-23.6 74.65-21.1 73.1-18.6 73.1-13.9L73.1-13.9 73.1 0 68.7 0 68.7-26.8 72.25-26.8 72.9-23.15 73.15-23.15Q74.4-25.25 76.52-26.28 78.65-27.3 81.05-27.3L81.05-27.3Q87.35-27.3 89.25-22.8L89.25-22.8 89.5-22.8Q90.85-25.1 93.17-26.2 95.5-27.3 98.09-27.3ZM117.69-36.85L117.69-36.85Q118.69-36.85 119.47-36.18 120.24-35.5 120.24-34.05L120.24-34.05Q120.24-32.65 119.47-31.95 118.69-31.25 117.69-31.25L117.69-31.25Q116.59-31.25 115.84-31.95 115.09-32.65 115.09-34.05L115.09-34.05Q115.09-35.5 115.84-36.18 116.59-36.85 117.69-36.85ZM115.44-26.8L119.84-26.8 119.84 0 115.44 0 115.44-26.8ZM141.24-27.3L141.24-27.3Q146.04-27.3 148.49-24.98 150.94-22.65 150.94-17.45L150.94-17.45 150.94 0 146.59 0 146.59-17.15Q146.59-23.6 140.59-23.6L140.59-23.6Q136.14-23.6 134.44-21.1 132.74-18.6 132.74-13.9L132.74-13.9 132.74 0 128.34 0 128.34-26.8 131.89-26.8 132.54-23.15 132.79-23.15Q134.09-25.25 136.39-26.28 138.69-27.3 141.24-27.3ZM168.74-27.3L168.74-27.3Q171.39-27.3 173.51-26.3 175.64-25.3 177.14-23.25L177.14-23.25 177.39-23.25 177.99-26.8 181.49-26.8 181.49 0.45Q181.49 6.2 178.56 9.1 175.64 12 169.49 12L169.49 12Q163.59 12 159.84 10.3L159.84 10.3 159.84 6.25Q163.79 8.35 169.74 8.35L169.74 8.35Q173.19 8.35 175.16 6.33 177.14 4.3 177.14 0.8L177.14 0.8 177.14-0.25Q177.14-0.85 177.19-1.98 177.24-3.1 177.29-3.55L177.29-3.55 177.09-3.55Q174.39 0.5 168.79 0.5L168.79 0.5Q163.59 0.5 160.66-3.15 157.74-6.8 157.74-13.35L157.74-13.35Q157.74-19.75 160.66-23.53 163.59-27.3 168.74-27.3ZM169.34-23.6L169.34-23.6Q165.99-23.6 164.14-20.93 162.29-18.25 162.29-13.3L162.29-13.3Q162.29-8.35 164.11-5.73 165.94-3.1 169.44-3.1L169.44-3.1Q173.49-3.1 175.34-5.28 177.19-7.45 177.19-12.3L177.19-12.3 177.19-13.35Q177.19-18.85 175.29-21.23 173.39-23.6 169.34-23.6Z" fill="#130912" data-fill-palette-color="primary"></path><path d="M233.64-35.7L238.34-35.7 228.84 0 224.29 0 217.34-23.4Q216.94-24.85 216.54-26.3 216.14-27.75 215.89-28.88 215.64-30 215.54-30.45L215.54-30.45Q215.49-29.8 215.01-27.68 214.54-25.55 213.84-23.25L213.84-23.25 207.09 0 202.54 0 193.09-35.7 197.79-35.7 203.34-13.9Q203.94-11.6 204.36-9.45 204.79-7.3 205.04-5.4L205.04-5.4Q205.29-7.35 205.79-9.65 206.29-11.95 206.94-14.15L206.94-14.15 213.24-35.7 217.89-35.7 224.44-14Q225.14-11.7 225.64-9.43 226.14-7.15 226.39-5.4L226.39-5.4Q226.64-7.25 227.09-9.43 227.54-11.6 228.14-13.95L228.14-13.95 233.64-35.7ZM266.54-13.45L266.54-13.45Q266.54-6.8 263.16-3.15 259.79 0.5 254.04 0.5L254.04 0.5Q250.49 0.5 247.71-1.13 244.94-2.75 243.34-5.88 241.74-9 241.74-13.45L241.74-13.45Q241.74-20.1 245.09-23.7 248.44-27.3 254.19-27.3L254.19-27.3Q257.83-27.3 260.61-25.68 263.39-24.05 264.96-20.98 266.54-17.9 266.54-13.45ZM246.29-13.45L246.29-13.45Q246.29-8.7 248.16-5.93 250.04-3.15 254.14-3.15L254.14-3.15Q258.19-3.15 260.08-5.93 261.99-8.7 261.99-13.45L261.99-13.45Q261.99-18.2 260.08-20.9 258.19-23.6 254.08-23.6L254.08-23.6Q249.99-23.6 248.14-20.9 246.29-18.2 246.29-13.45ZM285.98-27.3L285.98-27.3Q286.73-27.3 287.61-27.23 288.48-27.15 289.13-27L289.13-27 288.58-22.95Q287.93-23.1 287.16-23.2 286.38-23.3 285.68-23.3L285.68-23.3Q283.63-23.3 281.83-22.18 280.03-21.05 278.96-19.03 277.88-17 277.88-14.3L277.88-14.3 277.88 0 273.48 0 273.48-26.8 277.08-26.8 277.58-21.9 277.78-21.9Q279.08-24.1 281.13-25.7 283.18-27.3 285.98-27.3ZM298.53-38L298.53 0 294.13 0 294.13-38 298.53-38ZM316.53 0.5L316.53 0.5Q311.53 0.5 308.53-2.98 305.53-6.45 305.53-13.35L305.53-13.35Q305.53-20.25 308.55-23.78 311.58-27.3 316.58-27.3L316.58-27.3Q319.68-27.3 321.65-26.15 323.63-25 324.88-23.35L324.88-23.35 325.18-23.35Q325.13-24 325-25.28 324.88-26.55 324.88-27.3L324.88-27.3 324.88-38 329.28-38 329.28 0 325.73 0 325.08-3.6 324.88-3.6Q323.68-1.9 321.68-0.7 319.68 0.5 316.53 0.5ZM317.23-3.15L317.23-3.15Q321.48-3.15 323.2-5.48 324.93-7.8 324.93-12.5L324.93-12.5 324.93-13.3Q324.93-18.3 323.28-20.98 321.63-23.65 317.18-23.65L317.18-23.65Q313.63-23.65 311.85-20.83 310.08-18 310.08-13.25L310.08-13.25Q310.08-8.45 311.85-5.8 313.63-3.15 317.23-3.15Z" fill="#e77917" data-fill-palette-color="accent"></path></g></svg></g></svg></g></svg></g></svg></g><g transform="matrix(1,0,0,1,423.7719756490166,0)"><svg viewBox="0 0 142.05727140633078 142.05727140633078" height="142.05727140633078" width="142.05727140633078"><g><svg></svg></g><g id="icon-0"><svg viewBox="0 0 142.05727140633078 142.05727140633078" height="142.05727140633078" width="142.05727140633078"><g><path d="M0 71.029c0-39.228 31.801-71.029 71.029-71.029 39.228 0 71.029 31.801 71.028 71.029 0 39.228-31.801 71.029-71.028 71.028-39.228 0-71.029-31.801-71.029-71.028zM71.029 136.661c36.248 0 65.633-29.385 65.632-65.632 0-36.248-29.385-65.633-65.632-65.633-36.248 0-65.633 29.385-65.633 65.633 0 36.248 29.385 65.633 65.633 65.632z" data-fill-palette-color="accent" fill="#e77917" stroke="transparent"></path></g><g transform="matrix(1,0,0,1,33.26139758915808,33.26139758915808)"><svg viewBox="0 0 75.53447622801463 75.53447622801463" height="75.53447622801463" width="75.53447622801463"><g><svg xmlns="http://www.w3.org/2000/svg" xmlns:xlink="http://www.w3.org/1999/xlink" version="1.1" x="0" y="0" viewBox="0 0 65 65" enable-background="new 0 0 65 65" xml:space="preserve" height="75.53447622801463" width="75.53447622801463" class="icon-dxe-0" data-fill-palette-color="accent" id="dxe-0"><path d="M22.927 39.034H21.027V37.134A0.975 0.975 0 1 0 19.077 37.134V39.034H17.177A0.975 0.975 0 0 0 17.177 40.985H19.078V42.885A0.975 0.975 0 1 0 21.028 42.885V40.985H22.927A0.975 0.975 0 1 0 22.927 39.034" fill="#e77917" data-fill-palette-color="accent"></path><path d="M44.809 39.275A0.976 0.976 0 0 0 45.784 38.3V37.463A0.976 0.976 0 0 0 43.833 37.463V38.3C43.833 38.839 44.27 39.275 44.809 39.275" fill="#e77917" data-fill-palette-color="accent"></path><rect x="24.246" y="18.714" width="2.041" height="2.169" fill="#e77917" data-fill-palette-color="accent"></rect><path d="M43.098 39.034H42.262A0.976 0.976 0 0 0 42.262 40.985H43.098A0.976 0.976 0 1 0 43.098 39.034" fill="#e77917" data-fill-palette-color="accent"></path><path d="M32.5 0C14.551 0 0 14.551 0 32.5S14.551 65 32.5 65 65 50.449 65 32.5 50.449 0 32.5 0M51.386 48.522C50.556 49.358 49.456 49.781 48.118 49.781 43.954 49.781 36.641 46.738 35.146 42.219H29.854C28.359 46.738 21.046 49.781 16.883 49.781 15.544 49.781 14.444 49.358 13.614 48.522 11.664 46.565 11.683 42.76 11.7 39.405L11.702 38.565C11.701 38.545 11.696 38.526 11.696 38.507A7.16 7.16 0 0 1 18.85 31.353H31.52V28.723C31.52 28.184 31.956 27.748 32.495 27.748H38.063C39.028 27.748 40.103 26.316 40.103 24.261S39.028 20.773 38.063 20.773H33.364A4.586 4.586 0 0 1 28.891 24.377H27.26A0.975 0.975 0 0 1 26.285 23.402V22.832H23.27A0.974 0.974 0 0 1 22.295 21.857V17.738C22.295 17.199 22.732 16.763 23.27 16.763H26.286V16.193C26.286 15.654 26.722 15.218 27.261 15.218H28.892A4.585 4.585 0 0 1 33.364 18.822H38.064C40.301 18.822 42.054 21.211 42.054 24.26S40.3 29.697 38.064 29.697H33.47V31.352H46.142C50.087 31.352 53.297 34.561 53.297 38.506L53.3 39.402C53.316 42.761 53.336 46.565 51.386 48.522" fill="#e77917" data-fill-palette-color="accent"></path><path d="M44.809 40.743A0.976 0.976 0 0 0 43.833 41.718V42.555A0.976 0.976 0 0 0 45.784 42.555V41.718A0.976 0.976 0 0 0 44.809 40.743" fill="#e77917" data-fill-palette-color="accent"></path><path d="M47.353 39.034H46.516A0.976 0.976 0 0 0 46.516 40.985H47.353A0.976 0.976 0 0 0 47.353 39.034" fill="#e77917" data-fill-palette-color="accent"></path></svg></g></svg></g></svg></g></svg></g></svg></g><defs></defs></svg><rect width="395.52" height="99.29937746950006" fill="none" stroke="none" visibility="hidden"></rect></g></svg></g></svg>