<svg width="450" height="179" viewBox="0 0 450 179" fill="none" xmlns="http://www.w3.org/2000/svg">
<path d="M270.83 107.748H276.49L265.05 150.403H259.571L251.202 122.444C250.881 121.289 250.56 120.134 250.238 118.979C249.917 117.824 249.656 116.797 249.456 115.897C249.255 115.005 249.115 114.379 249.034 114.021C248.994 114.539 248.781 115.642 248.396 117.33C248.019 119.027 247.549 120.791 246.987 122.623L238.859 150.403H233.38L222 107.748H227.66L234.343 133.795C234.825 135.627 235.234 137.399 235.571 139.112C235.917 140.824 236.189 142.437 236.39 143.951C236.591 142.397 236.892 140.705 237.293 138.873C237.695 137.041 238.156 135.248 238.678 133.496L246.265 107.748H251.864L259.752 133.675C260.314 135.507 260.795 137.327 261.197 139.136C261.598 140.952 261.899 142.557 262.1 143.951C262.301 142.477 262.582 140.872 262.943 139.136C263.304 137.407 263.726 135.607 264.207 133.735L270.83 107.748ZM310.448 134.332C310.448 139.629 309.092 143.732 306.378 146.639C303.673 149.546 300.012 151 295.396 151C292.546 151 290.005 150.351 287.773 149.052C285.55 147.762 283.796 145.87 282.511 143.377C281.227 140.892 280.584 137.877 280.584 134.332C280.584 129.035 281.929 124.953 284.618 122.086C287.308 119.218 290.961 117.784 295.577 117.784C298.499 117.784 301.076 118.43 303.308 119.72C305.539 121.018 307.285 122.89 308.546 125.336C309.814 127.789 310.448 130.788 310.448 134.332ZM286.063 134.332C286.063 138.116 286.814 141.111 288.315 143.317C289.825 145.532 292.225 146.639 295.516 146.639C298.768 146.639 301.152 145.532 302.669 143.317C304.203 141.111 304.969 138.116 304.969 134.332C304.969 130.549 304.203 127.582 302.669 125.431C301.152 123.281 298.744 122.205 295.444 122.205C292.161 122.205 289.776 123.281 288.291 125.431C286.806 127.582 286.063 130.549 286.063 134.332ZM333.858 117.784C334.46 117.784 335.114 117.812 335.821 117.868C336.519 117.932 337.13 118.023 337.651 118.143L336.989 122.982C336.467 122.862 335.897 122.763 335.279 122.683C334.653 122.603 334.059 122.564 333.497 122.564C331.851 122.564 330.306 123.01 328.861 123.902C327.416 124.802 326.264 126.056 325.405 127.665C324.538 129.282 324.104 131.166 324.104 133.317V150.403H318.806V118.382H323.141L323.743 124.236H323.984C325.027 122.484 326.372 120.971 328.018 119.696C329.664 118.422 331.61 117.784 333.858 117.784ZM348.971 105V150.403H343.672V105H348.971ZM370.646 151C366.632 151 363.421 149.614 361.013 146.842C358.604 144.078 357.4 139.948 357.4 134.452C357.4 128.956 358.612 124.802 361.037 121.99C363.469 119.186 366.693 117.784 370.707 117.784C373.195 117.784 375.23 118.242 376.812 119.158C378.401 120.074 379.698 121.19 380.702 122.504H381.063C381.023 121.986 380.95 121.217 380.846 120.198C380.75 119.186 380.702 118.382 380.702 117.784V105H386V150.403H381.725L380.942 146.101H380.702C379.738 147.455 378.454 148.61 376.848 149.566C375.242 150.522 373.175 151 370.646 151ZM371.489 146.639C374.901 146.639 377.298 145.711 378.678 143.855C380.067 142.007 380.762 139.211 380.762 135.468V134.512C380.762 130.529 380.099 127.47 378.775 125.336C377.45 123.209 375.002 122.145 371.429 122.145C368.579 122.145 366.44 123.269 365.011 125.515C363.59 127.769 362.879 130.788 362.879 134.571C362.879 138.395 363.59 141.362 365.011 143.473C366.44 145.584 368.599 146.639 371.489 146.639Z" fill="#E77917"/>
<path d="M221.529 70.3726V65.2139H239.039V87.783C236.298 88.5998 233.533 89.2016 230.745 89.5885C227.956 89.9754 224.79 90.1689 221.245 90.1689C215.999 90.1689 211.58 89.2102 207.988 87.2929C204.396 85.3842 201.669 82.6545 199.807 79.1036C197.936 75.5613 197 71.3613 197 66.5036C197 61.6888 198.04 57.5189 200.119 53.9939C202.199 50.4688 205.19 47.7261 209.094 45.7658C212.989 43.8141 217.701 42.8383 223.23 42.8383C226.066 42.8383 228.75 43.0747 231.283 43.5476C233.807 44.0205 236.156 44.6868 238.33 45.5466L235.92 50.5763C234.124 49.8454 232.106 49.2221 229.866 48.7062C227.616 48.1904 225.286 47.9324 222.876 47.9324C216.826 47.9324 212.114 49.5875 208.74 52.8976C205.356 56.2078 203.664 60.7431 203.664 66.5036C203.664 70.1576 204.316 73.3904 205.62 76.2018C206.915 79.0219 208.957 81.2143 211.746 82.7791C214.534 84.3525 218.197 85.1392 222.734 85.1392C224.955 85.1392 226.846 85.0317 228.405 84.8168C229.965 84.6018 231.383 84.3439 232.659 84.043V70.3726H221.529ZM264.702 54.3808C269.334 54.3808 272.76 55.305 274.981 57.1535C277.203 59.002 278.313 61.9468 278.313 65.9877V89.5241H273.776L272.571 84.6233H272.287C270.633 86.5148 268.894 87.912 267.07 88.8147C265.255 89.7175 262.741 90.1689 259.527 90.1689C256.077 90.1689 253.217 89.3392 250.949 87.6798C248.68 86.0291 247.546 83.4411 247.546 79.9161C247.546 76.477 249.035 73.8203 252.012 71.946C254.99 70.0802 259.574 69.0614 265.765 68.8895L272.217 68.696V66.6325C272.217 63.7523 271.531 61.7533 270.161 60.6356C268.79 59.5179 266.852 58.9591 264.348 58.9591C262.363 58.9591 260.472 59.2256 258.676 59.7586C256.88 60.3003 255.202 60.915 253.643 61.6029L251.729 57.347C253.383 56.5302 255.344 55.8295 257.613 55.2448C259.881 54.6688 262.244 54.3808 264.702 54.3808ZM272.146 72.6295L266.545 72.8229C261.819 72.9949 258.544 73.6827 256.72 74.8864C254.905 76.0901 253.997 77.7881 253.997 79.9806C253.997 81.915 254.645 83.3337 255.94 84.2364C257.244 85.1392 258.913 85.5906 260.945 85.5906C264.159 85.5906 266.829 84.7824 268.956 83.166C271.082 81.5582 272.146 79.0778 272.146 75.7247V72.6295ZM331.752 54.3163C336.062 54.3163 339.281 55.3136 341.407 57.3083C343.534 59.3116 344.598 62.5486 344.598 67.0194V89.5241H338.43V67.2774C338.43 61.8178 335.849 59.088 330.688 59.088C327.012 59.088 324.379 60.0553 322.791 61.9898C321.213 63.9243 320.423 66.74 320.423 70.4371V89.5241H314.256V67.2774C314.256 61.8178 311.656 59.088 306.458 59.088C302.629 59.088 299.983 60.1627 298.518 62.3122C297.052 64.4616 296.32 67.5568 296.32 71.5977V89.5241H290.081V54.9611H295.115L296.036 59.6684H296.391C297.572 57.8628 299.165 56.5173 301.169 55.6317C303.182 54.7548 305.323 54.3163 307.592 54.3163C313.547 54.3163 317.422 56.2508 319.218 60.1198H319.573C320.849 58.1423 322.583 56.6807 324.776 55.7349C326.978 54.7891 329.304 54.3163 331.752 54.3163ZM359.542 42C360.487 42 361.328 42.288 362.065 42.8641C362.793 43.4487 363.157 44.3644 363.157 45.6111C363.157 46.8147 362.793 47.7175 362.065 48.3193C361.328 48.9212 360.487 49.2221 359.542 49.2221C358.502 49.2221 357.627 48.9212 356.919 48.3193C356.21 47.7175 355.855 46.8147 355.855 45.6111C355.855 44.3644 356.21 43.4487 356.919 42.8641C357.627 42.288 358.502 42 359.542 42ZM356.351 54.9611H362.59V89.5241H356.351V54.9611ZM392.932 54.3163C397.469 54.3163 400.895 55.3136 403.211 57.3083C405.527 59.3116 406.685 62.5486 406.685 67.0194V89.5241H400.517V67.4063C400.517 61.8608 397.682 59.088 392.01 59.088C387.804 59.088 384.897 60.1627 383.29 62.3122C381.684 64.4616 380.88 67.5568 380.88 71.5977V89.5241H374.642V54.9611H379.675L380.597 59.6684H380.951C382.18 57.8628 383.881 56.5173 386.055 55.6317C388.229 54.7548 390.521 54.3163 392.932 54.3163ZM431.922 54.3163C434.427 54.3163 436.682 54.7462 438.686 55.6059C440.699 56.4657 442.415 57.7769 443.832 59.5394H444.187L445.038 54.9611H450V90.1044C450 95.0481 448.615 98.7666 445.846 101.26C443.086 103.753 438.799 105 432.986 105C427.409 105 422.848 104.269 419.304 102.808V97.5844C423.037 99.39 427.716 100.293 433.34 100.293C436.601 100.293 439.163 99.4244 441.025 97.6876C442.897 95.9423 443.832 93.565 443.832 90.5558V89.2016C443.832 88.6858 443.856 87.9421 443.903 86.9705C443.951 86.0076 443.998 85.3327 444.045 84.9458H443.761C441.209 88.4278 437.287 90.1689 431.993 90.1689C427.078 90.1689 423.236 88.5998 420.466 85.4616C417.706 82.3234 416.326 77.9386 416.326 72.3071C416.326 66.8045 417.706 62.4282 420.466 59.1783C423.236 55.9369 427.055 54.3163 431.922 54.3163ZM432.773 59.088C429.607 59.088 427.149 60.2358 425.4 62.5314C423.652 64.8356 422.777 68.1157 422.777 72.3715C422.777 76.6274 423.638 79.8817 425.358 82.1343C427.088 84.3955 429.607 85.5261 432.915 85.5261C436.743 85.5261 439.532 84.5889 441.28 82.7146C443.029 80.8489 443.903 77.8311 443.903 73.6612V72.3071C443.903 67.5783 443.005 64.1908 441.209 62.1445C439.413 60.1069 436.601 59.088 432.773 59.088Z" fill="#130912"/>
<g clip-path="url(#clip0_648_173)">
<path d="M74.8453 97.6515H72.1561V94.9623C72.1561 94.5963 72.0107 94.2453 71.7519 93.9865C71.4931 93.7277 71.1421 93.5823 70.7761 93.5823C70.4101 93.5823 70.0591 93.7277 69.8003 93.9865C69.5415 94.2453 69.3961 94.5963 69.3961 94.9623V97.6515H66.7069C66.3407 97.6515 65.9895 97.797 65.7306 98.0559C65.4716 98.3148 65.3262 98.666 65.3262 99.0322C65.3262 99.3984 65.4716 99.7496 65.7306 100.008C65.9895 100.267 66.3407 100.413 66.7069 100.413H69.3975V103.102C69.3975 103.468 69.5429 103.819 69.8017 104.078C70.0605 104.337 70.4115 104.482 70.7775 104.482C71.1435 104.482 71.4945 104.337 71.7533 104.078C72.0121 103.819 72.1575 103.468 72.1575 103.102V100.413H74.8453C75.2115 100.413 75.5627 100.267 75.8216 100.008C76.0806 99.7496 76.226 99.3984 76.226 99.0322C76.226 98.666 76.0806 98.3148 75.8216 98.0559C75.5627 97.797 75.2115 97.6515 74.8453 97.6515Z" fill="#E77917"/>
<path d="M105.817 97.9927C106.183 97.9923 106.534 97.8468 106.792 97.5881C107.051 97.3294 107.197 96.9786 107.197 96.6127V95.428C107.185 95.0695 107.035 94.7295 106.777 94.4799C106.52 94.2304 106.175 94.0908 105.816 94.0908C105.458 94.0908 105.113 94.2304 104.855 94.4799C104.598 94.7295 104.447 95.0695 104.436 95.428V96.6127C104.436 97.3756 105.054 97.9927 105.817 97.9927Z" fill="#E77917"/>
<path d="M79.6007 68.891H76.7119V71.9609H79.6007V68.891Z" fill="#E77917"/>
<path d="M103.394 97.6515H102.211C101.853 97.6629 101.513 97.8134 101.263 98.0711C101.014 98.3288 100.874 98.6734 100.874 99.0322C100.874 99.3909 101.014 99.7355 101.263 99.9932C101.513 100.251 101.853 100.401 102.211 100.413H103.394C103.58 100.419 103.764 100.387 103.937 100.321C104.109 100.254 104.267 100.153 104.4 100.024C104.533 99.8957 104.638 99.7415 104.711 99.571C104.783 99.4005 104.82 99.2173 104.82 99.0322C104.82 98.847 104.783 98.6638 104.711 98.4933C104.638 98.3229 104.533 98.1686 104.4 98.0399C104.267 97.9111 104.109 97.8103 103.937 97.7436C103.764 97.6769 103.58 97.6455 103.394 97.6515Z" fill="#E77917"/>
<path d="M88.3945 42.4037C62.9898 42.4037 42.3945 62.9988 42.3945 88.4034C42.3945 113.808 62.9898 134.403 88.3945 134.403C113.799 134.403 134.395 113.808 134.395 88.4034C134.395 62.9988 113.799 42.4037 88.3945 42.4037ZM115.125 111.081C113.951 112.264 112.394 112.863 110.5 112.863C104.606 112.863 94.2556 108.556 92.1396 102.159H84.6494C82.5334 108.556 72.1827 112.863 66.2905 112.863C64.3953 112.863 62.8383 112.264 61.6636 111.081C58.9036 108.311 58.9305 102.925 58.9545 98.1766L58.9574 96.9877C58.9559 96.9594 58.9489 96.9325 58.9489 96.9056C58.9511 94.2208 60.0186 91.6466 61.9171 89.7482C63.8155 87.8498 66.3897 86.7823 69.0745 86.78H87.0075V83.0576C87.0075 82.2947 87.6246 81.6776 88.3875 81.6776H96.2683C97.6342 81.6776 99.1557 79.6508 99.1557 76.7422C99.1557 73.8336 97.6342 71.8053 96.2683 71.8053H89.6174C89.3008 73.2495 88.5008 74.5423 87.3495 75.4698C86.1983 76.3974 84.7648 76.9042 83.2864 76.9063H80.9779C80.6119 76.9063 80.2609 76.7609 80.0021 76.5021C79.7433 76.2433 79.5979 75.8923 79.5979 75.5263V74.7196H75.3305C75.1493 74.7198 74.9697 74.6842 74.8022 74.6149C74.6347 74.5456 74.4825 74.444 74.3543 74.3158C74.2261 74.1876 74.1245 74.0354 74.0552 73.8679C73.9859 73.7004 73.9503 73.5209 73.9505 73.3396V67.5096C73.9505 66.7468 74.5691 66.1297 75.3305 66.1297H79.5993V65.3229C79.5993 64.56 80.2164 63.9429 80.9793 63.9429H83.2878C84.7661 63.9451 86.1993 64.4519 87.3503 65.3795C88.5013 66.3071 89.3011 67.5999 89.6174 69.0439H96.2697C99.4359 69.0439 101.917 72.4253 101.917 76.7407C101.917 81.0562 99.4345 84.4361 96.2697 84.4361H89.7675V86.7786H107.703C113.287 86.7786 117.83 91.3205 117.83 96.9042L117.835 98.1724C117.857 102.927 117.885 108.311 115.125 111.081Z" fill="#E77917"/>
<path d="M105.817 100.07C105.451 100.07 105.1 100.216 104.841 100.475C104.582 100.733 104.436 101.084 104.436 101.45V102.635C104.447 102.994 104.598 103.334 104.855 103.583C105.113 103.833 105.458 103.972 105.816 103.972C106.175 103.972 106.52 103.833 106.777 103.583C107.035 103.334 107.185 102.994 107.197 102.635V101.45C107.197 101.085 107.051 100.734 106.792 100.475C106.534 100.216 106.183 100.071 105.817 100.07Z" fill="#E77917"/>
<path d="M109.417 97.6515H108.233C107.874 97.663 107.534 97.8135 107.285 98.0711C107.035 98.3288 106.896 98.6735 106.896 99.0322C106.896 99.3909 107.035 99.7356 107.285 99.9932C107.534 100.251 107.874 100.401 108.233 100.413H109.417C109.776 100.401 110.116 100.251 110.365 99.9932C110.615 99.7356 110.755 99.3909 110.755 99.0322C110.755 98.6735 110.615 98.3288 110.365 98.0711C110.116 97.8135 109.776 97.663 109.417 97.6515Z" fill="#E77917"/>
</g>
<path d="M0 89.5006C0 40.0711 40.0711 0 89.5006 0C138.93 0 179.001 40.0711 179 89.5006C179 138.93 138.929 179.001 89.5006 179C40.0711 179 0 138.929 0 89.5006ZM89.5006 172.201C135.175 172.201 172.202 135.174 172.201 89.5006C172.201 43.8261 135.174 6.79927 89.5006 6.79927C43.8261 6.79927 6.79927 43.8261 6.79927 89.5006C6.79927 135.175 43.8261 172.202 89.5006 172.201Z" fill="#E77917"/>
<defs>
<clipPath id="clip0_648_173">
<rect width="92" height="91.9995" fill="white" transform="translate(42.3945 42.4037)"/>
</clipPath>
</defs>
</svg>
