<svg width="32" height="32" viewBox="0 0 32 32" fill="none" xmlns="http://www.w3.org/2000/svg">
<path d="M19.5875 2.05625C21.2125 2.38125 22.2688 3.9625 21.9438 5.5875L21.8 6.3C21.4687 7.96875 20.8562 9.55625 20 11H29C30.6562 11 32 12.3437 32 14C32 15.1562 31.3438 16.1625 30.3813 16.6625C31.0625 17.2125 31.5 18.0562 31.5 19C31.5 20.4625 30.45 21.6812 29.0688 21.9437C29.3438 22.4 29.5 22.9312 29.5 23.5C29.5 24.8312 28.6312 25.9625 27.4312 26.35C27.475 26.5562 27.5 26.775 27.5 27C27.5 28.6562 26.1562 30 24.5 30H18.4062C17.2188 30 16.0625 29.65 15.075 28.9937L12.6687 27.3875C11 26.275 10 24.4 10 22.3937V20V17V15.4437C10 13.6187 10.8312 11.9 12.25 10.7562L12.7125 10.3875C14.3687 9.0625 15.5 7.2 15.9125 5.125L16.0562 4.4125C16.3812 2.7875 17.9625 1.73125 19.5875 2.05625ZM2 12H6C7.10625 12 8 12.8937 8 14V28C8 29.1062 7.10625 30 6 30H2C0.89375 30 0 29.1062 0 28V14C0 12.8937 0.89375 12 2 12Z" fill="#E77917"/>
</svg>
